<svg xmlns="http://www.w3.org/2000/svg" xmlns:xlink="http://www.w3.org/1999/xlink" width="24" height="32" viewBox="0 0 24 32"><defs><path id="dwdma" d="M942.545 387.412a2 2 0 0 1 2-2H958a2 2 0 0 1 2 2V406a2 2 0 0 1-2 2h-13.455a2 2 0 0 1-2-2z"/><path id="dwdmb" d="M956.727 381.176v22.589c0 .78-.73 1.411-1.636 1.411h-16.364c-.905 0-1.636-.63-1.636-1.411v-22.589c0-.78.73-1.411 1.636-1.411h16.364c.905 0 1.636.63 1.636 1.411z"/><path id="dwdmc" d="M945.273 398.588h7.636c.301 0 .546.211.546.47 0 .26-.245.471-.546.471h-7.636c-.301 0-.546-.21-.546-.47s.245-.47.546-.47z"/><path id="dwdmd" d="M940.91 395.765h12c.3 0 .545.21.545.47s-.245.47-.546.47h-12c-.301 0-.545-.21-.545-.47s.244-.47.545-.47z"/><path id="dwdme" d="M940.91 392.941h12c.3 0 .545.211.545.47 0 .26-.245.471-.546.471h-12c-.301 0-.545-.21-.545-.47s.244-.47.545-.47z"/><path id="dwdmf" d="M940.91 390.118h12c.3 0 .545.21.545.47s-.245.47-.546.47h-12c-.301 0-.545-.21-.545-.47s.244-.47.545-.47z"/><path id="dwdmg" d="M938.727 379.765c-.902 0-1.636.633-1.636 1.411v22.589c0 .778.734 1.411 1.636 1.411h16.364c.902 0 1.636-.633 1.636-1.411v-22.589c0-.778-.734-1.411-1.636-1.411zm16.364 26.353h-16.364c-1.503 0-2.727-1.055-2.727-2.353v-22.589c0-1.296 1.224-2.352 2.727-2.352h16.364c1.504 0 2.727 1.056 2.727 2.352v22.589c0 1.298-1.223 2.353-2.727 2.353z"/><path id="dwdmh" d="M952.364 376c-1.204 0-2.182.844-2.182 1.882v8c0 .779.734 1.412 1.636 1.412.902 0 1.637-.633 1.637-1.412v-4.235c0-.26-.245-.47-.546-.47-.301 0-.545.21-.545.47v4.235c0 .26-.245.47-.546.47-.3 0-.545-.21-.545-.47v-8c0-.518.49-.94 1.09-.94.602 0 1.092.422 1.092.94v.942h1.09v-.942c0-1.038-.978-1.882-2.181-1.882z"/><path id="dwdmi" d="M940.364 384.47c0-1.039.976-1.882 2.181-1.882s2.182.843 2.182 1.883-.977 1.882-2.182 1.882-2.181-.843-2.181-1.882z"/></defs><g><g transform="translate(-936 -376)"><g><use fill="#e1e1e1" xlink:href="#dwdma"/></g><g><use fill="#fff" xlink:href="#dwdmb"/></g><g><g><use fill="#727272" xlink:href="#dwdmc"/></g><g><use fill="#727272" xlink:href="#dwdmd"/></g><g><use fill="#727272" xlink:href="#dwdme"/></g><g><use fill="#727272" xlink:href="#dwdmf"/></g></g><g><use fill="#ccc" xlink:href="#dwdmg"/></g><g><use fill="#727272" xlink:href="#dwdmh"/></g><g><use fill="#727272" xlink:href="#dwdmi"/></g></g></g></svg>