<?xml version="1.0" encoding="UTF-8"?>
<svg width="56px" height="30px" viewBox="0 0 56 30" version="1.1" xmlns="http://www.w3.org/2000/svg" xmlns:xlink="http://www.w3.org/1999/xlink">
    <!-- Generator: Sketch 54.1 (76490) - https://sketchapp.com -->
    <title>logos 24%</title>
    <desc>Created with Sketch.</desc>
    <defs>
        <linearGradient x1="-0.18041958%" y1="50%" x2="100%" y2="50%" id="linearGradient-1">
            <stop stop-color="#00B4E6" offset="0%"></stop>
            <stop stop-color="#088CCB" offset="100%"></stop>
        </linearGradient>
    </defs>
    <g id="main" stroke="none" stroke-width="1" fill="none" fill-rule="evenodd">
        <g id="10-d_donate" transform="translate(-140.000000, -502.000000)">
            <g id="payments" transform="translate(0.000000, 80.000000)">
                <g id="form" transform="translate(88.000000, 89.073171)">
                    <g id="left">
                        <g id="step-3:-pay" transform="translate(32.000000, 282.402439)">
                            <g id="after-1&amp;2-select">
                                <g id="methods" transform="translate(0.000000, 41.500000)">
                                    <g id="1">
                                        <g id="hover">
                                            <g id="logos-24%" transform="translate(20.000000, 9.109756)">
                                                <g id="1_maestro" transform="translate(39.529412, 16.659818)">
                                                    <polygon id="Path" fill="#6C6BBD" fill-rule="evenodd" points="10.1632161 9.18545056 5.83680844 9.18545056 5.83680844 1.09936265 10.1632161 1.09936265"></polygon>
                                                    <path d="M6.11141994,5.14257139 C6.11141994,6.78287152 6.84988319,8.24400398 7.99986137,9.18561537 C7.15891231,9.87416869 6.09758753,10.2851429 4.94415128,10.2851429 C2.21350334,10.2851429 -2.41589342e-07,7.98277217 -2.41589342e-07,5.14257139 C-2.41589342e-07,2.3023706 2.21350334,-6.49999998e-08 4.94415128,-6.49999998e-08 C6.09758753,-6.49999998e-08 7.15891231,0.410974082 7.99986137,1.09952742 C6.84988319,2.04113883 6.11141994,3.50227127 6.11141994,5.14257139" id="Path" fill="#D32011" fill-rule="evenodd" transform="translate(3.999931, 5.142571) scale(-1, 1) rotate(-180.000000) translate(-3.999931, -5.142571) "></path>
                                                    <path d="M15.9999996,5.14257139 C15.9999996,2.3023706 13.786496,-6.49999998e-08 11.0558481,-6.49999998e-08 C9.90241188,-6.49999998e-08 8.841087,0.410974082 7.99982363,1.09952742 C9.15011619,2.04113883 9.88857944,3.50227127 9.88857944,5.14257139 C9.88857944,6.78287152 9.15011619,8.24400398 7.99982363,9.18561537 C8.841087,9.87416869 9.90241188,10.2851429 11.0558481,10.2851429 C13.786496,10.2851429 15.9999996,7.98277217 15.9999996,5.14257139" id="Path" fill="#0099DF" fill-rule="evenodd" transform="translate(11.999912, 5.142571) scale(-1, 1) rotate(-180.000000) translate(-11.999912, -5.142571) "></path>
                                                    <path d="M11.6270396,12.533567 C11.6845699,12.533567 11.7672501,12.5221238 11.8304392,12.4962948 L11.7424146,12.216427 C11.6820549,12.2422559 11.6216952,12.2507566 11.5638504,12.2507566 C11.3771126,12.2507566 11.2837437,12.1252085 11.2837437,11.899614 L11.2837437,11.1339009 L10.9979782,11.1339009 L10.9979782,12.4992374 L11.2809144,12.4992374 L11.2809144,12.3334746 C11.3551065,12.4534647 11.4623078,12.533567 11.6270396,12.533567 L11.6270396,12.533567 Z M10.5713734,12.2278703 L10.1045288,12.2278703 L10.1045288,11.6109186 C10.1045288,11.4739272 10.1510561,11.3823817 10.2940961,11.3823817 C10.3682882,11.3823817 10.4616571,11.4082106 10.5465379,11.4595415 L10.6289037,11.2055026 C10.5383642,11.1397859 10.3956387,11.0995713 10.2720899,11.0995713 C9.93413844,11.0995713 9.81624838,11.2882205 9.81624838,11.6053605 L9.81624838,12.2278703 L9.54965969,12.2278703 L9.54965969,12.4992374 L9.81624838,12.4992374 L9.81624838,12.913481 L10.1045288,12.913481 L10.1045288,12.4992374 L10.5713734,12.4992374 L10.5713734,12.2278703 L10.5713734,12.2278703 Z M6.91552437,11.9365592 C6.94601862,12.1337091 7.06107931,12.2680849 7.26447894,12.2680849 C7.44838744,12.2680849 7.56659181,12.1480948 7.59677169,11.9365592 L6.91552437,11.9365592 Z M7.89354025,11.8165692 C7.89071094,12.2422559 7.63795463,12.533567 7.26982331,12.533567 C6.88534456,12.533567 6.61624087,12.2422559 6.61624087,11.8165692 C6.61624087,11.3827086 6.89634762,11.0998982 7.2893145,11.0998982 C7.48705538,11.0998982 7.6681345,11.1512292 7.82752188,11.2911631 L7.68731125,11.5111993 C7.57759494,11.4196538 7.43738438,11.3683229 7.30566188,11.3683229 C7.12175344,11.3683229 6.95419231,11.4569259 6.91300944,11.7024642 L7.88788156,11.7024642 C7.89071094,11.7397363 7.89354025,11.7766814 7.89354025,11.8165692 L7.89354025,11.8165692 Z M9.14851912,12.1507105 C9.06898269,12.2023683 8.90708031,12.2680849 8.73951925,12.2680849 C8.58296131,12.2680849 8.48959231,12.2079264 8.48959231,12.1078802 C8.48959231,12.0166615 8.58830562,11.9908326 8.71185437,11.9738314 L8.84640625,11.9538875 C9.13217169,11.9107303 9.30507712,11.7851821 9.30507712,11.545202 C9.30507712,11.285278 9.08533006,11.0995713 8.70651,11.0995713 C8.49210731,11.0995713 8.29436644,11.1567873 8.13780844,11.2767773 L8.27236025,11.5082568 C8.36855856,11.431097 8.5115985,11.3653803 8.70933937,11.3653803 C8.90425094,11.3653803 9.00862294,11.4252119 9.00862294,11.5311432 C9.00862294,11.6079761 8.93443081,11.6511333 8.77787281,11.6736927 L8.643321,11.6936365 C8.34938175,11.7367937 8.18999444,11.8737851 8.18999444,12.096437 C8.18999444,12.3678042 8.40439712,12.533567 8.73668987,12.533567 C8.94543387,12.533567 9.13500106,12.4848517 9.27206787,12.3906906 L9.14851912,12.1507105 L9.14851912,12.1507105 Z M12.6710739,12.2514105 C12.612286,12.2514105 12.5578994,12.2406213 12.5072852,12.2193696 C12.4569855,12.197791 12.4132876,12.1677117 12.3765059,12.1291318 C12.3397242,12.0905519 12.3108018,12.0441253 12.2897388,11.9901788 C12.2686757,11.9362322 12.2583015,11.8767277 12.2583015,11.8119919 C12.2583015,11.7469292 12.2686757,11.6877515 12.2897388,11.633805 C12.3108018,11.5798585 12.3397242,11.5334318 12.3765059,11.4948519 C12.4132876,11.456272 12.4569855,11.4261927 12.5072852,11.4046141 C12.5578994,11.3830356 12.612286,11.3725732 12.6710739,11.3725732 C12.7298617,11.3725732 12.7845626,11.3830356 12.8348624,11.4046141 C12.8854765,11.4261927 12.9294888,11.456272 12.9662706,11.4948519 C13.003681,11.5334318 13.0326033,11.5798585 13.0539807,11.633805 C13.0750437,11.6877515 13.0854181,11.7469292 13.0854181,11.8119919 C13.0854181,11.8767277 13.0750437,11.9362322 13.0539807,11.9901788 C13.0326033,12.0441253 13.003681,12.0905519 12.9662706,12.1291318 C12.9294888,12.1677117 12.8854765,12.197791 12.8348624,12.2193696 C12.7845626,12.2406213 12.7298617,12.2514105 12.6710739,12.2514105 L12.6710739,12.2514105 Z M12.6710738,12.533567 C12.7729308,12.533567 12.8672429,12.5152579 12.9540099,12.4783127 C13.040777,12.4416945 13.1159122,12.3910175 13.1791013,12.3266086 C13.2426047,12.2621998 13.2919614,12.1860209 13.3278,12.0983987 C13.3636386,12.0104496 13.3815579,11.9149806 13.3815579,11.8119919 C13.3815579,11.7090031 13.3636386,11.6135342 13.3278,11.5255851 C13.2919614,11.4379629 13.2426047,11.361457 13.1791013,11.2970481 C13.1159122,11.2326393 13.040777,11.1822892 12.9540099,11.1453441 C12.8672429,11.1087259 12.7729308,11.0904167 12.6710738,11.0904167 C12.5692168,11.0904167 12.4749047,11.1087259 12.3881377,11.1453441 C12.3013706,11.1822892 12.2268641,11.2326393 12.1639894,11.2970481 C12.1011147,11.361457 12.0517581,11.4379629 12.0159195,11.5255851 C11.9800809,11.6135342 11.9621616,11.7090031 11.9621616,11.8119919 C11.9621616,11.9149806 11.9800809,12.0104496 12.0159195,12.0983987 C12.0517581,12.1860209 12.1011147,12.2621998 12.1639894,12.3266086 C12.2268641,12.3910175 12.3013706,12.4416945 12.3881377,12.4783127 C12.4749047,12.5152579 12.5692168,12.533567 12.6710738,12.533567 L12.6710738,12.533567 Z M5.24683003,11.8165692 C5.24683003,12.0565493 5.39804369,12.2536992 5.64514122,12.2536992 C5.88123569,12.2536992 6.04062303,12.0650499 6.04062303,11.8165692 C6.04062303,11.5680884 5.88123569,11.3797661 5.64514122,11.3797661 C5.39804369,11.3797661 5.24683003,11.5765891 5.24683003,11.8165692 L5.24683003,11.8165692 Z M6.30972669,11.8165692 L6.30972669,12.4992374 L6.02427562,12.4992374 L6.02427562,12.3334746 C5.93342169,12.4564071 5.79635487,12.533567 5.60961703,12.533567 C5.24148569,12.533567 4.95320522,12.2337553 4.95320522,11.8165692 C4.95320522,11.3997099 5.24148569,11.0995713 5.60961703,11.0995713 C5.79635487,11.0995713 5.93342169,11.1767312 6.02427562,11.2996637 L6.02427562,11.1339009 L6.30972669,11.1339009 L6.30972669,11.8165692 Z M4.70044897,11.1339009 L4.70044897,11.9908326 C4.70044897,12.3135307 4.50270803,12.5306245 4.18424772,12.533567 C4.01668666,12.5365096 3.84346687,12.4822361 3.72274747,12.2906443 C3.63220791,12.4420215 3.489168,12.533567 3.28859772,12.533567 C3.14870153,12.533567 3.01132032,12.4907368 2.90411897,12.330859 L2.90411897,12.4992374 L2.61866786,12.4992374 L2.61866786,11.1339009 L2.90694833,11.1339009 L2.90694833,11.8907864 C2.90694833,12.127824 3.03332646,12.2536992 3.228238,12.2536992 C3.41780522,12.2536992 3.5140035,12.1252085 3.5140035,11.8937289 L3.5140035,11.1339009 L3.80228397,11.1339009 L3.80228397,11.8907864 C3.80228397,12.127824 3.93432081,12.2536992 4.12357366,12.2536992 C4.31879956,12.2536992 4.4121685,12.1252085 4.4121685,11.8937289 L4.4121685,11.1339009 L4.70044897,11.1339009 L4.70044897,11.1339009 Z" id="Shape" fill="#110F0D" fill-rule="nonzero" transform="translate(8.000113, 12.001949) scale(-1, 1) rotate(-180.000000) translate(-8.000113, -12.001949) "></path>
                                                </g>
                                                <g id="1_mir" transform="translate(3.294118, 19.327250)">
                                                    <path d="M20.6820539,3.71428571 L28.4821429,3.71428571 C28.1275934,4.85714286 27.0048533,5.71428571 25.7048385,5.71428571 L23.3411752,5.71428571 L23.3411752,8 L20.6820539,8 L20.6820539,3.71428571 Z M11.2274007,0 L13.8865219,0 L13.8865219,4.57142857 L14.1819798,4.57142857 C14.1819798,4.57142857 14.8910788,3.2 16.2501852,0.571428571 C16.5456432,0.0571428571 17.136559,0 17.136559,0 L19.5002223,0 L19.5002223,8 L16.8411011,8 L16.8411011,3.42857143 L16.5456432,3.42857143 C16.5456432,3.42857143 16.0729105,4.34285714 14.4774378,7.42857143 C14.1819798,8 13.591064,8 13.591064,8 L11.2274007,8 L11.2274007,0 Z M0,8 L0,0 L2.65912122,0 C2.65912122,0 3.4273118,0 3.84095287,1.14285714 C4.90460136,4.17142857 5.02278453,4.57142857 5.02278453,4.57142857 C5.02278453,4.57142857 5.25915086,3.82857143 6.20461618,1.14285714 C6.61825726,0 7.38644784,0 7.38644784,0 L10.0455691,0 L10.0455691,8 L7.38644784,8 L7.38644784,3.71428571 L7.09098992,3.71428571 L5.61370036,8 L4.4318687,8 L2.95457913,3.71428571 L2.65912122,3.71428571 L2.65912122,8 L0,8 Z" id="Combined-Shape" fill="#4DB45F"></path>
                                                    <path d="M25.9218282,0 L20.1964286,0 C20.5042458,1.80833333 22.3511489,3.5 24.3827423,3.5 L28.9384366,3.5 C29,3.325 29,3.09166667 29,2.91666667 C29,1.28333333 27.6456044,0 25.9218282,0 Z" id="path10" fill="url(#linearGradient-1)"></path>
                                                </g>
                                                <g id="1_mastercard" transform="translate(39.529412, 0.655227)">
                                                    <path d="M2.90870315,12.8707353 L2.90870315,12.0145887 C2.90870315,11.6863992 2.71661899,11.4723625 2.38733185,11.4723625 C2.22268828,11.4723625 2.04432441,11.529439 1.92084174,11.7149374 C1.82479966,11.5579772 1.68759668,11.4723625 1.48179223,11.4723625 C1.34458925,11.4723625 1.20738628,11.5151699 1.0976239,11.6721301 L1.0976239,11.5009008 L0.809497656,11.5009008 L0.809497656,12.8707353 L1.0976239,12.8707353 L1.0976239,12.1144725 C1.0976239,11.8718976 1.22110658,11.7577448 1.41319074,11.7577448 C1.6052749,11.7577448 1.70131698,11.8861667 1.70131698,12.1144725 L1.70131698,12.8707353 L1.98944323,12.8707353 L1.98944323,12.1144725 C1.98944323,11.8718976 2.1266462,11.7577448 2.30501006,11.7577448 C2.49709423,11.7577448 2.59313631,11.8861667 2.59313631,12.1144725 L2.59313631,12.8707353 L2.90870315,12.8707353 L2.90870315,12.8707353 Z M7.17571563,11.5009008 L6.7092255,11.5009008 L6.7092255,11.0870966 L6.42109931,11.0870966 L6.42109931,11.5009008 L6.16041363,11.5009008 L6.16041363,11.7720138 L6.42109931,11.7720138 L6.42109931,12.3998547 C6.42109931,12.7137751 6.54458194,12.8992735 6.87386913,12.8992735 C6.99735175,12.8992735 7.13455475,12.8564662 7.23059681,12.7993897 L7.14827506,12.5425458 C7.06595325,12.5996222 6.96991119,12.6138913 6.90130969,12.6138913 C6.76410675,12.6138913 6.7092255,12.5282767 6.7092255,12.3855856 L6.7092255,11.7720138 L7.17571563,11.7720138 L7.17571563,11.5009008 L7.17571563,11.5009008 Z M9.61792856,11.4723625 C9.453285,11.4723625 9.34352263,11.5579772 9.27492113,11.6721301 L9.27492113,11.5009008 L8.98679488,11.5009008 L8.98679488,12.8707353 L9.27492113,12.8707353 L9.27492113,12.1002034 C9.27492113,11.8718976 9.37096319,11.7434756 9.54932706,11.7434756 C9.60420825,11.7434756 9.67280975,11.7577448 9.72769094,11.7720138 L9.81001275,11.4866317 C9.75513156,11.4723625 9.67280975,11.4723625 9.61792856,11.4723625 L9.61792856,11.4723625 L9.61792856,11.4723625 Z M5.92716856,11.6150536 C5.78996559,11.5151699 5.59788144,11.4723625 5.39207697,11.4723625 C5.06278984,11.4723625 4.84326506,11.6435919 4.84326506,11.9147049 C4.84326506,12.1430108 5.00790866,12.2714327 5.29603488,12.3142401 L5.43323787,12.3285091 C5.58416112,12.3570473 5.66648291,12.3998547 5.66648291,12.4712002 C5.66648291,12.571084 5.55672053,12.6424295 5.36463637,12.6424295 C5.17255222,12.6424295 5.02162894,12.571084 4.92558684,12.4997384 L4.78838388,12.7280442 C4.93930716,12.842197 5.14511163,12.8992735 5.35091606,12.8992735 C5.73508441,12.8992735 5.95460916,12.7137751 5.95460916,12.4569311 C5.95460916,12.2143562 5.77624528,12.0859343 5.50183934,12.0431269 L5.36463637,12.0288578 C5.24115369,12.0145887 5.14511163,11.9860505 5.14511163,11.9004359 C5.14511163,11.8005521 5.24115369,11.7434756 5.39207697,11.7434756 C5.55672053,11.7434756 5.72136409,11.8148212 5.80368588,11.8576285 L5.92716856,11.6150536 L5.92716856,11.6150536 Z M13.5830945,11.4723625 C13.4184509,11.4723625 13.3086886,11.5579772 13.2400871,11.6721301 L13.2400871,11.5009008 L12.9519608,11.5009008 L12.9519608,12.8707353 L13.2400871,12.8707353 L13.2400871,12.1002034 C13.2400871,11.8718976 13.3361291,11.7434756 13.514493,11.7434756 C13.5693742,11.7434756 13.6379757,11.7577448 13.6928569,11.7720138 L13.7751787,11.4866317 C13.7202975,11.4723625 13.6379757,11.4723625 13.5830945,11.4723625 L13.5830945,11.4723625 L13.5830945,11.4723625 Z M9.90605481,12.185818 C9.90605481,12.5996222 10.1804607,12.8992735 10.60579,12.8992735 C10.7978741,12.8992735 10.9350771,12.8564662 11.0722801,12.7423133 L10.9350771,12.4997384 C10.8253148,12.5853531 10.7155524,12.6281604 10.5920697,12.6281604 C10.3588246,12.6281604 10.1941811,12.4569311 10.1941811,12.185818 C10.1941811,11.9289741 10.3588246,11.7577448 10.5920697,11.7434756 C10.7155524,11.7434756 10.8253148,11.786283 10.9350771,11.8718976 L11.0722801,11.6293228 C10.9350771,11.5151699 10.7978741,11.4723625 10.60579,11.4723625 C10.1804607,11.4723625 9.90605481,11.7720138 9.90605481,12.185818 L9.90605481,12.185818 L9.90605481,12.185818 Z M12.5677925,12.185818 L12.5677925,11.5009008 L12.2796663,11.5009008 L12.2796663,11.6721301 C12.1836242,11.5437081 12.0464212,11.4723625 11.8680573,11.4723625 C11.4976093,11.4723625 11.2094831,11.7720138 11.2094831,12.185818 C11.2094831,12.5996222 11.4976093,12.8992735 11.8680573,12.8992735 C12.0601415,12.8992735 12.1973445,12.8279279 12.2796663,12.699506 L12.2796663,12.8707353 L12.5677925,12.8707353 L12.5677925,12.185818 Z M11.5113296,12.185818 C11.5113296,11.9432431 11.6622529,11.7434756 11.9092183,11.7434756 C12.1424633,11.7434756 12.3071069,11.9289741 12.3071069,12.185818 C12.3071069,12.4283929 12.1424633,12.6281604 11.9092183,12.6281604 C11.6622529,12.6138913 11.5113296,12.4283929 11.5113296,12.185818 L11.5113296,12.185818 Z M8.06753494,11.4723625 C7.68336662,11.4723625 7.40896069,11.7577448 7.40896069,12.185818 C7.40896069,12.6138913 7.68336662,12.8992735 8.08125525,12.8992735 C8.27333944,12.8992735 8.46542356,12.842197 8.61634681,12.7137751 L8.47914388,12.4997384 C8.3693815,12.5853531 8.2321785,12.6424295 8.09497556,12.6424295 C7.91661169,12.6424295 7.73824781,12.5568149 7.69708694,12.3142401 L8.671228,12.3142401 L8.671228,12.2000871 C8.68494831,11.7577448 8.43798294,11.4723625 8.06753494,11.4723625 L8.06753494,11.4723625 L8.06753494,11.4723625 Z M8.06753494,11.7292065 C8.24589881,11.7292065 8.3693815,11.8433595 8.39682206,12.0573961 L7.71080725,12.0573961 C7.73824781,11.8718976 7.8617305,11.7292065 8.06753494,11.7292065 L8.06753494,11.7292065 Z M15.2158099,12.185818 L15.2158099,10.9586747 L14.9276836,10.9586747 L14.9276836,11.6721301 C14.8316416,11.5437081 14.6944386,11.4723625 14.5160748,11.4723625 C14.1456267,11.4723625 13.8575004,11.7720138 13.8575004,12.185818 C13.8575004,12.5996222 14.1456267,12.8992735 14.5160748,12.8992735 C14.7081589,12.8992735 14.8453619,12.8279279 14.9276836,12.699506 L14.9276836,12.8707353 L15.2158099,12.8707353 L15.2158099,12.185818 Z M14.159347,12.185818 C14.159347,11.9432431 14.3102703,11.7434756 14.5572356,11.7434756 C14.7904807,11.7434756 14.9551243,11.9289741 14.9551243,12.185818 C14.9551243,12.4283929 14.7904807,12.6281604 14.5572356,12.6281604 C14.3102703,12.6138913 14.159347,12.4283929 14.159347,12.185818 L14.159347,12.185818 Z M4.52769825,12.185818 L4.52769825,11.5009008 L4.239572,11.5009008 L4.239572,11.6721301 C4.14352991,11.5437081 4.00632694,11.4723625 3.82796306,11.4723625 C3.45751503,11.4723625 3.16938878,11.7720138 3.16938878,12.185818 C3.16938878,12.5996222 3.45751503,12.8992735 3.82796306,12.8992735 C4.02004722,12.8992735 4.15725022,12.8279279 4.239572,12.699506 L4.239572,12.8707353 L4.52769825,12.8707353 L4.52769825,12.185818 Z M3.45751503,12.185818 C3.45751503,11.9432431 3.60843831,11.7434756 3.85540366,11.7434756 C4.08864872,11.7434756 4.25329228,11.9289741 4.25329228,12.185818 C4.25329228,12.4283929 4.08864872,12.6281604 3.85540366,12.6281604 C3.60843831,12.6138913 3.45751503,12.4283929 3.45751503,12.185818 Z" id="Shape" fill="#000000" fill-rule="nonzero"></path>
                                                    <rect id="Rectangle" fill="#FF5F00" fill-rule="evenodd" x="5.83112784" y="1.09872157" width="4.32189366" height="8.07631558"></rect>
                                                    <path d="M6.10553244,5.13687808 C6.10553244,3.49593049 6.8464285,2.04048136 7.98521319,1.09872015 C7.148275,0.413802903 6.09181213,-1.26579359e-06 4.93930716,-1.26579359e-06 C2.20896798,-1.26579359e-06 1.07863587e-07,2.29732532 1.07863587e-07,5.13687808 C1.07863587e-07,7.9764308 2.20896798,10.2737574 4.93930716,10.2737574 C6.09181213,10.2737574 7.148275,9.85995322 7.98521319,9.175036 C6.8464285,8.24754385 6.10553244,6.77782567 6.10553244,5.13687808 Z" id="Path" fill="#EB001B" fill-rule="evenodd"></path>
                                                    <path d="M15.9841466,5.13687808 C15.9841466,7.9764308 13.7751787,10.2737574 11.0448395,10.2737574 C9.8923345,10.2737574 8.83587156,9.85995322 7.9989335,9.175036 C9.15143844,8.23327479 9.87861419,6.77782567 9.87861419,5.13687808 C9.87861419,3.49593049 9.13771812,2.04048136 7.9989335,1.09872015 C8.83587156,0.413802903 9.8923345,-1.26579359e-06 11.0448395,-1.26579359e-06 C13.7751787,-1.26579359e-06 15.9841466,2.31159443 15.9841466,5.13687808 Z" id="Path" fill="#F79E1B" fill-rule="evenodd"></path>
                                                </g>
                                                <g id="1_visa" transform="translate(0.000000, 3.322659)">
                                                    <path d="M12.74,9.82005141 L10.339,9.82005141 L11.8335,0.154241645 L14.2345,0.154241645 L12.74,9.82005141 Z M8.33,0.154241645 L10.9025,0.154241645 L7.105,9.82005141 L4.5815,9.82005141 L2.499,1.41388175 C1.1515,0.565552699 0,0.30848329 0,0.30848329 L0.049,0.154241645 L3.8465,0.154241645 C4.8755,0.154241645 4.9735,1.02827763 4.9735,1.02827763 L5.782,5.37275064 L6.0515,6.81233933 L8.33,0.154241645 Z M27.195,9.82005141 L26.901,8.38046272 L23.863,8.38046272 L23.373,9.82005141 L20.874,9.82005141 L24.451,0.87403599 C24.451,0.87403599 24.6715,0.154241645 25.5535,0.154241645 L27.489,0.154241645 L29.4,9.82005141 L27.195,9.82005141 Z M24.549,6.40102828 L26.509,6.40102828 L25.7985,2.77634961 L24.549,6.40102828 Z M21.0455,2.49357326 C20.0165,1.87660668 17.689,1.74807198 17.6645,2.85347044 C17.6645,3.93316195 21.021,4.16452442 21.021,6.68380463 C21.021,9.10025707 18.5465,10 16.905,10 C15.2635,10 14.1855,9.46015424 14.1855,9.46015424 L14.553,7.30077121 C15.5575,8.12339332 18.522,8.35475578 18.522,7.0437018 C18.522,5.73264781 15.2145,5.70694087 15.2145,3.21336761 C15.2145,0.539845758 18.032,-1.0906831e-12 19.2325,-1.0906831e-12 C20.335,-1.0906831e-12 21.3885,0.411311054 21.3885,0.411311054 L21.0455,2.49357326 Z" id="Combined-Shape" fill="#0066B3"></path>
                                                    <path d="M6,5 L5.16101695,0.837438424 C5.16101695,0.837438424 5.05932203,0 3.99152542,0 L0.0508474576,0 L0,0.147783251 C0,0.147783251 1.88135593,0.517241379 3.68644068,1.94581281 C5.41525424,3.30049261 6,5 6,5 Z" id="Path" fill="#FAA634"></path>
                                                </g>
                                            </g>
                                        </g>
                                    </g>
                                </g>
                            </g>
                        </g>
                    </g>
                </g>
            </g>
        </g>
    </g>
</svg>